<?xml version="1.0" encoding="UTF-8"?>
<svg version="1.1" viewBox="0 0 744.09 1052.4" xmlns="http://www.w3.org/2000/svg">
 <g fill-rule="evenodd" stroke="#000" stroke-miterlimit="10" stroke-width=".082">
  <path d="m221.31 299.63c-6.8592-3.2663-18.454-3.2663-35.112 0.32662-17.066 3.4296-43.768 10.125-64.672 20.414s-48.504 25.967-58.874 39.522c-10.37 12.983-25.885 25.069-2.7763 38.787 23.354 13.637 69.408 27.6 140.7 42.543-1.0615 3.9195 0.97988 10.615 5.7976 20.088 4.8177 9.4722 12.412 21.231 23.109 36.174l160.05-38.215c0.65326-17.638 0.32663-31.274-1.3065-42.216-1.5515-10.942-4.4095-18.21-8.2473-22.456 6.4509-21.394 5.226-40.583-3.6746-58.548-9.3089-18.373-37.48-40.175-50.137-48.749-12.82-8.4106-20.986-8.7373-25.477-1.3065-0.65324 4.5728-7.1858 7.7574-20.496 10.207-13.555 2.2047-32.66 3.3479-58.874 3.4296z"/>
  <path d="m250.95 403.5c7.5941 1.3065 15.433 0.73491 24.497-1.3882 8.7373-2.2047 18.373-6.2876 28.58-11.922-0.89823 6.6958 0.81657 10.779 4.8178 12.248 3.8379 1.3882 12.494 2.858 19.026-4.0828 6.4509-7.1858 19.434-29.233 19.434-38.787-0.48993-9.7172-12.983-14.29-20.741-19.108-7.839-5.3894-17.393-11.759-25.232-11.187-8.1657 0.65326-12.085 10.37-22.129 15.27-10.207 4.7361-22.619 9.0639-38.134 13.31-3.6746-4.8994-10.044-8.8189-20.088-12.983-10.289-4.2461-24.089-12.902-39.522-11.187-15.678 1.5515-52.587 19.598-52.75 21.394-0.0817 1.3882 34.378-12.412 51.77-11.514 17.311 0.97989 33.888 6.5326 51.036 16.985-0.65326 5.5527-0.40829 11.922 0.73491 19.434 1.1432 7.5124 2.9396 15.596 5.716 25.15 3.6746 7.2674 1.3065 12.33-7.1041 16.413-8.8189 3.9195-20.741 9.3089-43.931 6.4509-23.517-3.5112-75.043-17.066-95.048-25.559-19.843-8.6556-22.129-16.821-24.17-24.824-2.2864-8.084 0.32663-13.392 11.269-22.537 11.024-9.5538 31.274-23.68 53.812-32.663 22.211-9.0639 48.096-15.678 78.636-20.741 5.3077 1.4698 13.31 2.4497 25.232 2.0414 11.84-0.32663 32.581-1.4698 44.585-3.7562 11.35-2.6947 16.576-9.4722 24.17-10.615 7.5941-0.97988 12.004-1.4698 21.149 4.4911 8.9006 5.7976 23.68 17.883 32.336 29.968 8.4106 12.085 15.27 28.743 18.046 41.482 2.4497 12.575 1.3065 23.19-3.103 33.071 4.0012 3.103 6.8592 9.4722 8.574 19.761 1.4698 10.125 1.7964 23.844 0.97987 41.155l-150.82 35.766c-4.7361-5.961-8.7373-13.228-12.657-22.129-3.9195-8.9006-7.4308-19.434-10.534-31.274 11.922-0.5716 21.231-4.0012 28.253-10.289 6.9408-6.5326 11.266-15.515 13.31-27.845z" fill="#137f40"/>
  <path d="m242.46 366.67c-0.40829 5.6343-0.48995 10.86 0.65326 15.678 0.89822 4.8994 2.613 8.9006 5.1444 12.902 8.8189 1.3882 17.148 0.65326 26.212-1.3065 8.9006-2.2047 19.516-7.7574 26.538-11.595 6.6142-4.0012 11.269-8.084 13.637-12.248-3.5112 8.7373-4.9811 15.188-3.7562 19.026 1.1432 3.6746 5.7976 6.9408 10.207 4.0828 4.3278-3.1846 11.514-14.943 14.617-21.068 2.7763-6.3692 4.0828-10.534 1.3882-15.352-3.2663-4.8178-13.637-9.9621-19.108-13.228-5.3077-3.6746-8.6556-7.4308-12.902-7.1858-4.5728-0.16331-7.4308 4.6544-13.963 8.1657-7.0225 3.4296-18.373 9.5538-26.538 13.31-8.4106 3.5929-15.27 6.5325-22.129 8.8189z" fill="#e8bdb1"/>
  <path d="m221.72 310.9c-1.3065-8.4923-5.0627-16.005-11.922-22.864-6.9408-6.8592-20.006-12.167-28.825-17.801-9.2272-5.716-19.924-8.7373-24.497-16.903-4.4911-8.4923-5.471-19.679-2.613-33.888l3.4296-17.801c-2.7763 1.2248-4.9811 0.0817-5.961-3.4296-1.0615-3.7562-1.5515-12.738-0.81656-17.801 0.40829-5.226 2.0414-11.269 4.2462-11.84 2.2047-0.65326 4.7361 2.2864 8.4923 8.4923v-33.071l-11.024 5.9609c-1.2249-2.6947-0.89824-5.716 1.6331-9.3905 2.368-3.6746 6.6142-8.0024 12.738-12.657h-13.555c1.8781-5.8793 4.4094-10.289 7.5941-13.555 3.0213-3.3479 6.6959-5.226 11.024-5.9609l-5.8793-4.2462c1.7964-6.2876 5.471-10.534 11.024-12.738 5.5527-2.368 12.657-2.5314 21.966-0.81657l2.613-12.738 16.903 7.6757c0.24497-6.6958 1.9598-10.37 4.2462-11.024 2.5314-0.81657 5.6343 1.5515 10.207 6.7775l5.8793-8.4923c11.595 6.4509 19.761 12.902 25.477 20.332 5.3894 7.1858 7.9207 14.698 7.5941 22.864 3.7562 4.7361 6.5325 9.5538 9.3089 14.453 2.5314 4.8994 4.4095 9.3905 5.9609 14.372 2.2864-2.9396 4.2462-3.8379 5.8793-2.5314 1.7148 1.3065 2.613 1.7964 4.2462 10.207 1.7148 8.4106-1.2249 17.393 3.4296 29.886 4.6544 12.494 12.575 17.638 14.045 23.354 1.3882 5.716 0.32663 11.595-3.0213 20.496-3.5112 8.8189-12.983 15.27-16.086 28.743-3.1846 13.637-4.0012 30.54-2.613 51.77-23.68 1.3859-47.361 2.7763-71.123 4.1645z"/>
  <path d="m164.97 250.39c-3.9195-4.3278-5.8793-8.4106-6.8592-13.473-0.89823-5.1444 0.65325-9.2272 1.5515-16.005 0.73491-6.8592 1.5515-14.943 2.7763-24.579-3.103 3.2663-5.5527 3.8379-7.0225 0.81657-1.7965-3.103-2.5314-14.78-2.2047-18.373 0.0817-3.7562 1.2248-4.4095 3.4296-3.8379 2.0414 0.24497 4.9811 2.6947 8.8189 6.4509 0.57159-3.1846 0.81657-7.5941 1.0615-13.882 0.0817-6.2059 0-13.963-0.24497-23.272 5.6343-3.0213 9.4722-5.961 11.514-8.8189 1.8781-3.103 2.2047-5.716 0.65325-8.7373 2.7763-2.2864 5.0627-4.7361 5.9609-7.0225 0.89823-2.368 0.89823-4.8994 0-7.2674 11.35-0.65326 19.353-1.8781 24.334-3.6746 4.8178-1.8781 6.5326-4.2462 5.1444-7.4308 2.2047 0.57159 5.3077 1.0615 9.6355 1.4698 4.3278 0.40828 11.759 1.1432 16.005 0.89823 4.0012-0.48995 6.8592-1.7965 8.574-3.9195 2.0414 2.7763 4.8994 5.3894 8.574 8.1657 3.4296 2.613 7.6757 5.3077 12.738 8.0818 1.5515 2.4497 3.5112 6.6142 6.2059 12.167 2.613 5.6343 5.6343 12.657 9.3905 21.394 1.7964-3.9195 3.2663-4.8178 4.7361-2.368 1.3065 2.2864 2.4497 10.942 3.4296 16.25 0.81658 4.9811 0.48995 9.6355 1.8781 14.29 1.0615 4.4094 3.103 6.8592 5.7976 13.065 2.4497 6.2059 10.86 16.086 10.452 24.007-0.65326 7.8391-9.2272 15.106-12.82 22.129-3.8379 6.5325-7.5124 11.84-9.1456 17.801-1.7148 5.7976-1.3065 9.4722-1.3065 17.964-0.24496 8.4106-0.16331 19.108 0.24497 32.418l-63.447 2.858c-0.0817-7.5124-3.103-14.535-9.3905-22.047-6.5325-7.5124-19.434-16.576-28.008-22.456-8.4106-5.9587-16.005-10.207-22.456-13.063z" fill="#e8bdb1"/>
  <path d="m230.21 171.76c6.5326 2.7763 12.167 3.9195 17.801 3.4296 5.6343-0.97988 11.187-3.5929 14.78-7.1858 3.0213-3.6746 8.084-10.452 4.8177-13.392-3.3479-3.0213-11.35-4.4911-24.334-4.4095-4.0828-7.839-4.6544-13.228-1.7148-16.821 2.7763-3.5929 13.473-6.1243 19.189-4.4911 5.3893 1.4698 13.228 10.125 14.045 13.392 0.65325 3.103-2.7763 4.8178-9.9621 5.471 4.8994 0.24497 8.329 1.5515 9.6355 4.8178 1.3065 3.1846 2.613 8.084-1.3882 13.718-4.4911 5.1444-16.168 16.005-24.007 17.801-7.9207 1.3882-19.434-5.6343-22.619-7.8391-3.3502-2.1231-1.7964-3.5112 3.7562-4.4911z"/>
  <path d="m258.71 133.71c-2.1231-1.1432-4.0828-1.1432-5.8793-0.32662-1.7964 0.81657-3.5112 2.5314-4.8177 5.1444l1.3882 6.8592 6.8592-0.7349c-2.1231-2.613-2.6947-4.0012-1.7148-5.0627 0.65325-1.3065 5.471-1.5515 6.8592-0.73491 1.1432 0.89822 1.7965 2.613 1.0616 5.7976 2.2047 0.57158 3.2663 0.24496 4.0828-0.97989 0.73491-1.4698 0.73491-5.226-0.32662-6.8592-1.4698-1.7964-3.6746-2.613-7.5124-3.103z" fill="#fff"/>
  <path d="m203.84 149.79c-2.858-3.0213-4.0012-5.5526-3.7562-8.574 0.32663-3.0213 2.368-6.9408 5.471-8.9006 2.9396-2.2864 8.084-4.1645 12.004-3.7562 3.6746 0.40828 7.839 2.1231 9.9621 5.471 1.9598 2.9396 2.858 6.9408 2.368 12.33-2.4497 2.1231-5.961 3.3479-10.207 4.0012-4.3278 0.48768-9.7172 0.40829-15.841-0.5716z"/>
  <path d="m217.23 135.42c-2.1231-1.1432-4.0828-1.1432-5.8793-0.32663-1.7964 0.81656-3.5112 2.5314-4.8178 5.1444l1.3882 6.8592 6.8592-0.6533c-2.1231-2.5314-2.6947-4.2462-1.7148-5.1444 0.65325-1.3065 5.471-1.5515 6.8592-0.73491 1.1432 0.81657 1.7964 2.7763 1.0615 5.8793 2.2047 0.73491 3.2663 0.0817 4.0828-1.0615 0.73491-1.4698 0.73491-5.226-0.32664-6.8592-1.4698-1.7965-3.6746-2.613-7.5124-3.103z" fill="#fff"/>
  <path d="m260.26 118.93c-0.5716-1.2248-9.9621-4.8177-13.718-5.716-3.8379-1.0615-8.1657-1.9598-8.9006-0.48994-0.81656 1.1432 1.6331 7.1858 3.5929 8.4106 1.7148 1.1432 3.7562-1.0615 7.0225-1.3065 3.1846-0.32663 12.004 0 12.004-0.89823z"/>
  <path d="m285.49 187.03c-1.7148 4.2462-6.4509 7.5941-14.208 10.044-8.084 2.368-21.557 5.0627-32.581 4.0012-11.187-1.3882-21.884-5.3893-33.071-12.004 9.5538-5.471 12.412-8.574 8.574-9.3089-3.9195-0.89822-28.906 2.2864-31.52 4.8177-2.7763 2.4497 2.368 5.5527 15.433 9.6355 15.188 13.473 29.723 20.496 43.605 21.394 13.882 0.65326 31.683-11.514 39.277-16.331 7.3491-4.9811 8.735-8.7373 4.4911-12.248z"/>
  <g fill="#b64738">
   <path d="m208.65 195.52c-0.48768 0.89822 13.966 13.31 24.744 14.535 10.697 0.65326 39.114-8.4106 39.604-9.2272 0.0817-0.89822-26.702 5.3077-37.562 4.4911-10.779-1.1432-26.62-10.618-26.786-9.7988z"/>
   <path d="m190.36 184.99c1.0615-1.0615 12.902-2.6947 14.453-2.368 1.0615 0.32662-4.1645 4.2461-6.5326 4.8177-2.5314 0.24497-9.1456-1.7148-7.9207-2.4497z"/>
  </g>
  <path d="m195.18 122.11c3.3479-5.1444 7.1858-7.7574 12.738-7.839 5.3077-0.32663 11.514 1.8781 18.944 6.6142-5.7976-1.8781-10.615-2.4497-14.78-1.3882-4.2462 0.73491-7.6757 6.3692-10.289 6.8592-2.8557 0.48767-5.0604-1.1432-6.6142-4.2462z"/>
  <g fill="#a16121">
   <path d="m197.14 121.78c2.5314-3.5929 5.6343-5.226 9.6355-5.8793 3.7562-0.57159 8.4106 0.16332 13.637 2.5314-4.0012-0.89822-7.4308-1.2248-10.289-0.0817-3.1846 1.0615-5.3894 4.8994-7.5124 5.7976-2.2047 0.40829-3.9195-0.16331-5.471-2.368z"/>
   <path d="m256.91 118.19c-0.40829-0.89823-7.7574-3.8379-10.697-4.4095-3.0213-0.97989-6.1243-1.3882-6.7775-0.32663-0.65326 0.89822 0.97988 5.471 2.6947 6.4509 1.3882 0.73491 2.7763-0.73491 5.471-0.97989 2.2864-0.40828 9.4722 0.0794 9.3089-0.73491z"/>
   <path d="m158.76 124.8c1.7964 1.3882 12.657-0.16331 16.495-1.2249 3.6746-1.4698 5.6343-3.9195 5.5527-6.0426-0.32662-2.2047-4.5728-6.1242-7.1041-6.3692-3.103-0.48993-7.0225 1.7148-9.5538 4.0828-2.858 2.2841-7.1858 8.0001-5.3894 9.5538z"/>
   <path d="m169.87 102.43c0.16331 2.1231 10.615 3.5112 16.903 3.8379 6.2876 0.32662 17.72-0.24497 20.741-1.7148 2.5314-1.7148 0.16331-5.6343-3.6746-7.6757-4.0012-2.1231-13.555-5.0627-19.189-4.0828-5.7182 0.81657-15.272 7.2674-14.78 9.6355z"/>
   <path d="m204.33 89.121c2.9396 2.2864 6.2059 3.9195 9.7988 5.7976 3.2663 1.6332 6.1243 3.6746 11.105 4.2462 4.8994 0.40828 11.269-0.08168 18.781-1.4676-2.858-3.7562-6.3692-7.1858-9.6355-10.289-3.5112-3.4296-9.3089-9.0639-11.105-8.7373-1.8781 0.24497-2.1231 3.9195-0.40828 10.697-3.2663-1.7964-6.3692-2.858-9.6355-4.0828-3.3479-0.97989-6.6142-2.1231-9.7988-2.5314 0.24497 2.1208 0.57159 4.2439 0.89823 6.367z"/>
   <path d="m267.29 111.33c0.0817-4.5728-1.2248-8.9822-3.5929-13.228-2.5314-4.4911-7.1858-8.9006-11.105-12.575-4.1645-3.7562-8.4106-6.5325-13.065-8.9822l-2.9396 6.4509c3.5929 5.6343 7.1042 10.207 10.207 13.392 3.103 2.9396 4.7361 3.0213 8.329 5.5526 3.5112 2.4497 7.3491 5.471 12.167 9.3905z"/>
   <path d="m172.07 130.36c-3.8379-0.0817-7.0225 1.1432-9.8805 3.6746-2.858 2.4497-5.3893 6.0426-7.2675 11.105 5.8793-1.2248 10.125-3.0213 13.065-5.3894 2.7786-2.5314 4.2484-5.5526 4.0828-9.3905z"/>
  </g>
  <path d="m226.62 232.02c0.57159 1.3065 9.6355 10.044 16.495 8.574 6.7775-2.0414 22.946-17.883 22.946-19.189-0.7349-1.3882-18.618 9.5538-25.314 11.432-6.6959 1.6332-14.453-2.2047-14.127-0.81656z"/>
  <path d="m157.29 184.99c0.0817 2.0414-0.0817 5.6343 1.0615 7.0225 0.97989 1.0615 4.4095 0.5716 4.8994 0.40828 0.16331-0.40828-2.613-1.2248-2.9396-2.1231-0.73491-1.2249-0.48994-2.9396 0.40828-3.8379 0.89823-0.81657 6.2876 0.24496 5.7976-0.89824-0.65326-1.5515-8.1657-6.2876-9.6355-6.3692-1.4698-0.0817-0.16558 3.4296 0.40828 5.7976z"/>
  <path d="m186.53 288.93c-2.6947-7.5941-7.4308-12.248-14.535-14.943-7.1041-2.613-16.576-2.9396-28.09-0.65326 2.0414 7.6757 4.6544 13.718 8.4923 18.128 3.7562 4.1645 8.084 6.6959 13.637 7.5941-1.5515 0.5716-5.5527 1.5515-12.33 3.2663-6.9408 1.5515-16.086 3.8379-28.335 6.5325 9.7171 7.1041 19.434 11.105 30.131 12.657 10.534 1.2248 21.067 0 32.581-4.3278 3.2663 1.5515 6.1243 2.368 9.4722 2.1231 3.1846-0.24496 6.2059-1.5515 9.3905-3.5929 16.495 3.5112 32.581 5.7976 48.259 6.5325 15.515 0.81657 33.969 2.2047 45.32-1.7964 10.86-4.3278 17.883-16.005 21.394-23.027 3.5112-7.1858 4.2462-14.208 0-19.189-4.6544-5.3077-13.228-8.9006-26.62-11.677-2.2864 2.1231-3.3479 4.5728-3.8379 7.6757-0.48993 2.9396-0.0817 6.2059 1.2249 10.125-5.3894 2.2864-12.82 4.4095-22.619 6.6959-10.125 2.0414-26.375 5.3894-36.419 6.5325-10.125 0.97989-17.556 1.1432-23.19 0.16332-1.3065-1.9598-3.0213-3.7562-5.1444-5.0627-2.2864-1.4698-4.8177-2.9396-7.9207-3.4296-3.0213-0.73266-6.9408-0.73266-10.86-0.32664z"/>
  <g fill="#fb0f0c">
   <path d="m189.06 295.22c-2.2864 0.40829-3.6746 2.613-3.8379 5.0627-0.16331 2.2864 0.5716 7.9207 2.5314 9.9621 1.7148 1.8781 5.226 3.0213 8.329 2.2047 2.858-1.0615 8.4106-4.2462 9.0639-7.0225 0.32662-2.6947-3.5112-7.5941-6.1242-9.0639-2.858-1.7964-7.7597-1.8781-9.9621-1.1432z"/>
   <path d="m183.26 290.32c-1.6332-5.3077-5.226-9.2272-11.105-11.759-5.9609-2.5314-14.045-3.6746-24.252-3.4296 2.9396 7.1858 6.6959 12.412 11.922 16.658 5.1444 4.0012 11.105 6.3692 18.536 7.4308-0.81657-1.7964-0.65325-3.4296 0.16331-4.8994 0.81658-1.6331 2.2864-2.858 4.7361-4.0012z"/>
   <path d="m136.47 309.76 35.112-7.5941 5.6343 0.8982c-0.5716 1.5515 0.0817 2.9396 1.3065 5.0627 1.3882 2.0414 3.3479 3.9195 6.5326 6.5325-8.0024 3.103-15.76 4.4095-23.925 3.5929-8.2473-0.81656-16.25-3.7585-24.66-8.4923z"/>
   <path d="m211.84 302.49c10.534 1.6332 21.966 2.0414 33.969 0.89823 12.004-1.3882 28.253-4.2462 38.052-7.5941 9.5538-3.3479 15.841-7.3491 19.189-12.004l-7.5941-0.4899c-0.81657-2.2864-1.0615-4.4095-0.40828-6.6959 0.48995-2.5314 1.5515-4.5728 3.5112-7.1041 8.6556 0.89822 14.698 3.103 18.454 7.2674 3.5929 4.0012 5.716 9.9621 3.2663 16.658-2.858 6.3692-6.6142 18.046-19.189 22.129-13.147 3.7562-40.828 2.613-56.588 2.2047-15.515-0.40828-27.763-1.8781-36.419-4.4095 1.6331-1.3065 2.9396-2.6947 3.5929-4.4911 0.48994-1.7965 0.65325-3.9195 0.16331-6.3692z"/>
  </g>
  <path d="m258.06 586.25c-14.535 9.7172-25.885 15.841-35.031 19.271-9.3089 3.0213-13.228 3.0213-19.353 0-6.3692-3.1846-12.004-9.1456-17.801-18.21-7.839-6.8569-13.473-12.736-17.556-18.618-4.4095-5.8793-6.4509-12.494-6.4509-16.086 0-3.7562 4.1645-5.8793 7.1858-6.0426 2.9396-0.32663 6.2876 1.2248 10.37 4.6544 3.0213-3.4296 6.1243-5.226 9.6355-5.716 3.4296-0.73491 7.1041-0.65325 10.697 2.4497 3.2663 2.858 6.3692 8.0001 9.3089 15.433 1.4698-5.226 4.0828-8.574 7.5124-10.044 3.2663-1.6331 7.3491-1.3882 12.902 1.0616 5.471 2.5314 12.248 6.5325 20.332 13.228 2.6924 6.2059 5.471 12.41 8.2473 18.618z"/>
  <g fill="#e8bdb1">
   <path d="m229.48 588.7c-2.858-1.1432-10.615-7.0225-12.902-10.697-2.4497-3.8379-2.2864-8.1679-1.3882-11.432 0.97988-3.5929 3.7562-8.6556 6.7775-8.9006 2.6947-0.24496 7.9207 2.7763 9.9621 7.5124 1.6332 4.5728 1.5515 15.106 1.0616 19.271-0.32664 3.9195-1.0616 5.2238-3.5112 4.2461z"/>
   <path d="m220.9 594.09c-0.97987-3.5112-7.5941-8.0024-10.044-12.167-2.6947-4.3278-3.7562-7.4285-5.716-12.167-2.2047-4.8155-5.1444-12.575-7.5124-15.676-2.9396-3.3502-5.8793-4.6567-7.839-3.2663-1.8781 1.4698-3.5112 6.3692-3.5929 11.84-0.32662 5.1466-0.97988 13.8 2.1231 19.682 3.0213 5.7976 10.452 11.187 15.352 14.614 4.6544 3.3502 9.4722 4.8994 12.575 4.6567 2.9374-0.5784 5.226-4.3323 4.6544-7.517z"/>
   <path d="m182.61 578.73c-0.97989-1.7171-1.4698-4.3278-2.1231-7.839-0.65326-3.7562-1.1432-8.0024-1.4698-13.639-3.4296-2.7763-6.0426-4.0828-7.839-4.2462-1.8781-0.2427-3.9195 1.2248-3.5929 3.5135-0.0817 2.1231 1.8781 5.7976 4.3278 9.7149 2.4497 3.5929 6.122 7.7574 10.697 12.496z"/>
  </g>
  <path d="m210.53 483.28 9.6355 20.741c-0.5716 12.983 0.97989 27.763 4.6544 44.993 3.6746 17.066 11.595 40.665 17.474 57.568 5.5527 16.821 10.697 32.989 16.086 42.216 5.226 8.8189 7.4308 12.004 15.76 11.105 8.2473-1.1432 19.353-6.4509 33.643-16.821l-6.1243-7.5124c5.3894-5.6343 12.902-10.779 22.864-16.086 10.044-5.3893 23.762-11.761 36.092-15.354 12.085-3.6746 23.68-6.0426 35.766-6.7752 2.1231 0 3.9195 1.6331 5.716 4.5728 1.6331 2.7763 3.1846 7.1858 4.6544 12.902 3.7562-1.2249 7.3491-3.019 11.105-5.716 3.5112-2.858 7.1858-6.2059 10.697-10.697 3.5929-9.3928 4.5728-22.946 3.2663-41.89-1.6332-19.11-6.2059-51.934-11.84-70.715-5.8793-18.781-12.738-32.173-21.802-40.828l-1.7964-14.127c-9.7172-5.1444-22.864-6.6958-40.338-4.6544-17.72 1.7148-39.685 7.1858-64.019 16.74-24.66 9.6332-51.201 22.782-81.493 40.338z"/>
  <g fill="#a16121">
   <path d="m216.25 486.22c3.1846-1.7964 6.4509-3.9195 10.697-6.0426 4.0828-2.2864 8.4923-4.5728 13.555-7.1858 1.7965 2.2047 2.9396 4.6544 4.3278 6.4509 1.3065 1.7148 1.9598 3.6746 2.858 4.9811-5.5526 3.1846-10.207 6.0426-14.29 8.2473-4.1645 2.2047-7.5124 3.7562-10.044 4.9811-2.3703-3.7562-4.7361-7.5963-7.1041-11.432z"/>
   <path d="m246.95 471.19c8.0024-4.0012 15.27-7.3491 21.476-10.37 6.2059-3.1846 11.677-5.3894 16.086-7.5124l3.1846 10.37c-8.084 4.2461-14.862 7.5941-20.332 10.37-5.716 2.6947-9.7172 4.4911-12.902 5.716-2.4497-2.8557-4.9833-5.7137-7.5124-8.574z"/>
   <path d="m290.97 450.86c7.6757-3.9195 14.372-7.0225 21.067-9.3089 6.3692-2.2864 12.33-4.2461 17.883-4.981-1.6331 2.2047-2.6947 4.5728-2.858 7.1041-0.32662 2.4497 0.24498 5.0627 1.3882 7.839-9.3905 2.368-16.658 4.0828-22.129 5.7976-5.471 1.3882-9.3905 2.7763-11.105 3.5112-1.3882-3.2663-2.7786-6.6142-4.2461-9.9621z"/>
  </g>
  <path d="m225.47 502.3c3.4296-1.2248 6.6959-2.5314 10.452-3.9195 3.5112-1.5515 7.1858-3.103 11.024-4.981 1.7148 2.858 3.7562 4.1645 6.1243 3.9195 2.2864-0.24497 4.8994-2.0414 7.839-5.3894 0.97987 8.574 0.16331 16.821-2.1231 25.069-2.368 8.168-13.555 23.599-12.167 24.252 0.97988 0.32662 15.27-11.105 18.944-21.394 3.5929-10.452 4.0828-23.599 2.1231-40.094 4.9811-3.2663 12.983-7.1858 24.334-11.432 11.35-4.3278 25.477-9.3089 43.278-14.617 5.3077 1.9598 10.534 3.0213 15.352 3.1846 4.5728-0.16331 8.6556-1.2249 13.555-2.858 4.8178-1.5515 10.615-4.2462 16.495-7.1858 1.2248-3.103 4.3278-1.5515 9.6355 4.0012 5.1444 5.3077 15.76 15.188 21.476 29.641 5.471 14.617 9.3905 40.747 11.759 57.568 2.1231 16.495 3.3479 37.317 1.7964 40.747-1.8781 3.1846-5.716-8.5717-12.167-21.065-6.5326-12.902-23.109-51.199-26.13-55.039-3.0213-3.7562 2.1231 16.495 7.5124 31.764 5.1444 15.106 12.575 34.132 22.946 58.303-7.6757-5.3894-19.026-6.9408-34.704-4.3278-16.005 2.613-40.583 8.6556-58.956 19.682-18.454 10.94-34.622 25.311-50.056 44.664-3.7562 0.16331-8.4106-5.7976-13.963-18.207-5.9609-12.496-14.208-33.806-20.006-55.774-5.7137-22.374-10.613-47.363-14.372-76.512z" fill="#1c7ab5"/>
  <path d="m293.5 640.96 9.4722 15.352-11.922 8.9823c-1.3882-1.6331-3.5929-1.6331-6.9408 0-3.6746 1.5538-6.7775 6.2059-13.392 9.8805-6.7775 3.7562-18.21 9.5538-25.804 11.432-7.6757 1.5515-13.882 0.48994-19.271-2.5314-2.2864-4.4888-5.716-7.3491-9.9621-8.9006-4.6544-1.7148-12.738-1.4698-16.331-0.48994-3.6746 0.97988-5.3894 3.0213-5.471 6.4509-4.8177-2.7763-12.412-1.7964-22.782 2.9396-10.452 4.7361-23.68 13.065-39.685 25.314-4.8178-1.3065-9.5538-0.48994-13.882 2.4497-4.7361 2.9396-10.942 8.7373-12.902 14.862-2.0414 5.7182-0.65326 12.332 0.97987 19.843 1.3065 7.5941 4.0828 19.108 7.4308 24.824 3.3479 5.3077 7.2674 8.1657 12.412 7.9207 0.16331 4.6544 0.65326 9.5538 1.4698 14.372 0.5716 4.8177 0 9.8782 3.0213 14.862 2.9396 4.7361 11.105 8.9006 14.372 14.372 2.6947 5.3077 2.5314 11.269 3.9195 17.883 1.4698 6.8592-0.24497 15.925 4.9811 21.802 5.0627 5.3077 13.392 8.9006 25.314 10.45 0.40829 7.9207 4.0828 13.149 11.35 15.354 7.1858 2.2047 17.393 1.5515 31.274-1.9598-1.1432 0.89823 0.24497 1.7148 4.4911 2.4497 4.1645 0.57159 12.738 2.5314 20.332 1.4698 7.1858-1.3065 14.943-4.1645 23.272-8.9028 2.6947 1.1432 5.716 1.4698 9.3905 0.98215 3.5929-0.57159 8.4106 1.3859 11.922-4.4911 3.1846-6.2036 5.8793-21.966 7.4308-32.173 1.3065-10.452 9.1456-16.985 1.4698-29.315-7.9207-12.575-23.354-27.11-47.606-44.585 3.9195-3.5929 4.9811-6.7775 3.5112-9.8804-1.7965-3.3479-7.6757-7.0225-12.902-8.49-5.471-1.5537-11.187-1.5537-18.373 0l-0.4899-2.4497 6.4509-2.9396c10.125 1.2226 20.496 0.97988 30.785-1.0638 10.452-2.0391 22.211-6.2853 31.193-10.86 8.574-4.7361 15.352-10.534 20.332-17.393l16.903-0.9799 9.8805 20.332c-3.7562 10.125-6.2876 18.947-7.9207 26.786-1.7965 7.6757-4.0828 13.147-1.4698 19.84 2.613 6.3715 11.269 14.864 16.821 18.863 5.1444 3.6746 10.207 4.9811 14.862 3.9195-1.3882 10.781 0.32662 21.149 5.471 31.767 4.8994 10.615 17.148 22.701 24.824 31.193 7.7574 8.0817 14.29 14.043 20.822 17.883 2.368 9.2272 8.0024 16.25 17.801 22.292 9.6355 5.716 24.334 10.289 39.685 12.412 15.106 1.7148 37.97 3.1846 50.627-0.97988 12.085-4.3278 17.311-17.885 23.272-24.336 6.0426-6.6142 9.9621-6.5325 12.412-14.862 2.2864-8.7373-0.89822-24.089 1.4698-35.684 1.9598-11.593 1.4698-19.516 11.432-33.232 10.125-14.129 39.44-38.218 48.584-49.568 8.7418-11.269 10.048-17.23 3.9218-17.883 9.4722 0.48993 16.492-3.6746 22.292-12.82 5.471-9.1433 9.2272-22.943 10.942-41.727 11.187-2.7763 17.964-9.6355 21.312-20.251 2.9374-10.942 6.5303-27.439-2.4497-44.179-9.3111-17.148-31.356-45.646-51.607-56.506-20.743-10.697-48.912-13.065-69.41-7.4285-20.332 5.471-31.274 20.822-52.015 41.643-21.149 21.067-44.83 47.935-72.92 82.8l-8.4106-6.9408c-0.0817-9.9621-0.24496-18.944-0.48994-27.273-0.32662-8.4106-0.81657-18.207-1.4698-22.782-0.89823-4.7361-2.6947-6.9408-4.4911-5.961 1.7964-3.103 1.7964-7.5124 0-12.902-1.9598-5.7182-5.3893-11.922-10.942-19.843-13.8-0.16331-26.865 1.2248-40.094 4.4888-13.31 3.0213-27.355 6.8592-38.705 14.372-11.593 7.4353-21.231 17.234-29.802 29.728z"/>
  <g fill="#e8bdb1">
   <path d="m306.4 635.97c3.2663-4.6544 8.9006-9.3905 16.903-13.882 8.084-4.6544 18.21-9.9621 30.703-13.389 12.248-3.5929 25.967-5.961 42.135-7.4308 2.7763 1.8781 4.6544 4.4095 5.961 7.9207 1.1432 3.5112 1.4698 7.5941 0.97988 12.902-12.167 1.1432-22.619 2.8603-31.683 5.471-9.2272 2.368-14.78 4.9811-22.292 9.3928-7.6757 4.4072-15.352 9.5538-23.354 16.411l-10.37-11.432-8.9822-5.9632z"/>
   <path d="m313.91 659.33c-2.4497 3.6746-3.1846 7.5147-2.5314 11.842 0.65326 4.3255 4.1645 9.0639 6.4509 13.879 2.1231 4.3278 5.6343 9.2272 6.4509 13.392 0.65325 4.0034 0 7.9207-1.9598 11.432 1.0615-0.16332 1.0615-0.16332 0 0-1.2248 0.16331-4.1645 2.2864-6.9408 0.98214-3.2663-1.8781-6.6958-5.9632-9.9621-10.37-3.4296-4.575-6.1243-9.8805-8.4106-14.943-2.2864-5.0627-3.6746-10.289-4.4911-15.354 2.368-2.9396 5.471-5.1444 8.9822-6.9408 3.509-1.8758 7.7551-3.1824 12.412-3.9195z"/>
  </g>
  <g fill="#fff">
   <path d="m224.66 694.52c3.5112 2.1231 9.3905 2.1231 17.311 0 7.9207-2.4497 17.883-6.6142 30.213-13.392-0.73491 2.4497 0.24498 3.5929 2.0414 3.4296 1.8781-0.32664 7.4308-4.3255 9.3905-4.4072 1.7964-0.16331 2.2864 0.97988 1.4698 3.4296-1.0615 2.2864-3.4296 5.1444-7.4308 9.4722 6.0426-3.4296 9.9621-4.9811 12.412-4.9811 2.2864 0 2.3681 2.6947 1.4698 4.9811-1.2248 2.0414-3.9195 4.4095-8.4106 7.4308 6.2059-1.3065 10.452-1.4698 12.412-0.48994 1.8781 0.97989 0.24496 3.9195-0.48995 5.9609-0.89822 1.7148-2.2864 3.3479-4.4911 4.8994 5.7976-1.3065 9.4722-1.4698 11.922-0.4922 2.0414 0.89822 4.7361 2.9396 1.4698 6.4532-3.3479 3.5112-10.125 10.286-21.312 14.372-11.677 3.9195-26.947 6.7752-47.116 8.9006-9.7171-7.5147-15.596-14.535-17.311-22.292-1.7965-7.8413 0.24496-15.193 6.4509-23.274z"/>
   <path d="m343.63 731.68c-6.1243-16.821-11.35-30.54-15.352-41.157-4.2462-10.615-9.5538-17.064-8.9822-22.782 0.5716-6.2036 6.8592-8.9822 12.902-13.389 5.961-4.6567 13.147-9.2272 22.782-13.392 9.4722-4.3278 24.905-10.125 33.724-11.432 8.7373-1.5515 14.29-0.48994 17.883 3.5112 3.0213 3.7562 1.1432 10.942 1.9598 20.332 0.73491 9.3928 2.2047 21.068 3.5112 35.684-8.329 1.7964-16.495 4.4889-24.824 8.4106-8.7373 3.9195-17.883 8.4106-25.232 14.372-7.2674 5.7954-13.392 12.085-18.373 19.843z"/>
  </g>
  <path d="m333.18 682.11c-2.2864-1.7148-5.471-6.9408-6.4509-9.3905-1.0616-2.6947-1.1432-7.0225 0.97987-5.471 2.0414 1.5537 9.7988 11.595 10.942 14.372 0.5716 2.207-3.3479 1.962-5.471 0.48995z"/>
  <path d="m342.65 677.13c-2.2864-1.7148-5.471-6.9431-6.4509-9.3928-1.2249-2.6947-0.89823-7.0225 0.97987-5.471 2.1231 1.5538 9.6355 11.595 10.86 14.374 0.5716 2.2047-3.4296 1.9575-5.3893 0.48993z"/>
  <path d="m353.51 669.7c-2.2864-1.7148-5.471-6.9408-6.4509-9.3905-1.0615-2.6947-1.1432-7.0247 0.97987-5.471 2.0414 1.5515 9.7988 11.595 10.942 14.372 0.5716 2.2025-3.3479 1.9598-5.471 0.48994z"/>
  <path d="m363.07 664.31c-2.1231-1.7964-4.4911-7.6757-5.226-10.125-0.5716-2.6947-0.32662-7.1042 1.6331-5.3077 1.8781 1.4676 8.1657 13.065 9.0639 15.596 0.48993 2.6107-3.8379 1.3065-5.471-0.16332z"/>
  <path d="m373.77 658.1c-1.9598-1.7148-4.4911-7.839-5.0627-10.207-0.5716-2.6947-0.0817-7.1041 1.7964-5.3077 1.5515 1.9598 8.2473 12.82 8.7373 15.841 0.48994 2.452-3.8379 1.3088-5.471-0.32662z"/>
  <path d="m385.85 652.8c-1.7148-2.1231-4.0012-7.839-4.3278-10.534-0.32663-2.7786 0.24497-7.0247 2.0414-5.1466 1.5515 1.9598 7.1858 13.392 7.7574 16.331 0.32663 2.2887-3.9195 1.2294-5.471-0.65098z"/>
  <path d="m395.73 649.61c-1.3882-2.3703-3.103-8.2496-2.9396-11.024 0-2.858 1.2248-6.7775 2.7763-4.8178 1.5515 1.9598 5.0627 14.29 5.471 17.148-0.24496 2.4474-3.9172 0.65098-5.3077-1.3065z"/>
  <g fill="#fff">
   <path d="m410.02 696.97c-0.48993-2.7786-22.292 6.122-26.702 10.94-4.4095 4.4095-3.6746 18.046 0.97988 16.331 4.7361-2.1208 25.395-24.331 25.722-27.271z"/>
   <path d="m206.29 752.5c-1.9598-1.7148-15.433-3.5929-19.353-3.4296-4.3278 0.24271-7.5124 3.3479-5.471 4.8994 2.0414 1.3859 12.412 3.5112 16.903 3.5112 4.1668-0.32889 9.6378-3.7562 7.9207-4.9811z"/>
   <path d="m226.62 758.95c0.32663-1.3859 12.983-1.0615 16.821 0 3.5929 0.98215 5.716 3.2663 5.471 4.9811-0.57159 1.3882-3.6746 3.5112-7.4308 2.9396-3.9195-1.0593-15.188-6.5303-14.862-7.9207z"/>
   <path d="m221.15 765.89c-0.0817-1.3882-9.6355-0.65326-12.902 0-3.4296 0.65326-6.2059 2.0392-6.4509 3.5112-0.0817 1.1432 1.4698 4.2462 4.9811 3.9195 3.1846-0.65325 13.963-6.3692 14.372-7.4308z"/>
   <path d="m225.15 776.83c-0.5716-1.0638-8.9006 1.3859-11.432 2.9396-3.0213 1.2248-4.7361 3.9195-4.4911 4.9788 0.40829 0.73492 4.0828 2.207 6.9408 0.98215 2.6924-1.6331 9.1456-7.839 8.9822-8.9006z"/>
  </g>
  <g fill="#a16121">
   <path d="m188.4 685.05c-5.6343 10.37-8.9822 20.253-9.3905 29.317-0.73491 9.2249 1.4698 17.23 5.9609 25.232-7.9207 3.0213-12.412 5.8793-14.372 9.4722-1.9598 3.3479-0.81657 8.329 3.4296 10.86 4.1645 2.2047 11.432 3.6746 21.802 3.5112-1.1432 1.9598-1.1432 4.4094 0 6.4509 1.1432 1.9598 3.1846 4.4095 6.4509 6.4509-2.4497 2.9419-3.7562 5.471-3.9195 7.9207-0.40828 2.2864-0.89822 4.575 2.9396 5.9609 4.0828 1.1432 10.615 1.6354 20.822 1.4698 2.9396 3.5929 7.0225 5.961 11.922 6.4509 4.7361 0.40829 11.024-3.0213 17.311-3.0213 5.8793-0.0817 12.738-1.5515 19.353 2.5314 6.4509 3.9195 17.311 10.697 20.332 20.332 2.9396 9.4722 2.1231 21.231-2.4497 36.174-8.7373 4.5728-20.169 6.6142-35.194 6.4509-15.27-0.48994-38.542-2.613-54.057-7.9207-15.596-5.5504-28.906-10.779-37.725-23.844-8.9822-13.473-11.105-41.318-15.841-54.547-5.1444-13.065-12.085-13.473-13.882-23.272-1.9598-10.207-0.73491-22.131 3.0213-36.664 2.368-4.575 7.7574-8.9028 16.821-13.882 8.9822-4.9811 20.986-10.125 36.664-15.435z"/>
   <path d="m413.53 877.44c-13.147-8.8189-23.109-19.108-30.213-31.193-7.3491-12.33-12.167-25.314-11.922-41.155 0.32662-16.25 6.1242-38.052 13.882-54.057 7.5124-16.007 17.801-29.889 31.193-41.645-4.6544 13.718-5.3077 22.211-1.9598 25.804 3.2663 3.3479 17.311 1.3882 21.312-4.981 3.6745-6.3692 4.0012-17.554 0.97987-33.232 0.89823 10.289 3.6746 16.576 8.0024 18.86 4.3278 2.0414 14.78-1.8781 17.801-5.471 2.7763-3.7539 2.4497-8.7373-0.97988-15.839 4.7361 4.3256 8.9822 5.1444 12.412 2.4497 3.5929-2.9396 6.6959-8.8212 8.4106-18.863 1.3065-10.125 1.3065-24.007 0-41.645 9.5538-12.983 19.189-23.678 29.233-33.643 9.7988-10.044 18.21-18.944 30.295-24.821 12.167-6.0426 28.09-9.8805 41.155-9.9644 12.573 0.24497 25.559 5.471 34.214 9.9644 8.4084 4.1645 13.471 8.6533 15.841 14.372-15.515-3.3502-31.44-1.9598-49.078 4.4888-17.556 6.1243-40.992 16.25-55.527 33.234-14.698 16.985-22.456 45.483-31.764 68.837-9.6355 23.436-15.27 50.137-24.824 69.982-9.7172 19.353-23.027 28.253-32.663 46.544-9.8782 18.123-18.37 38.454-25.801 61.973z"/>
  </g>
  <g fill="#fff">
   <path d="m425.94 702.93c-5.3894 9.0639-7.5941 15.515-6.9408 19.35 0.73491 3.6746 9.0639 7.0248 10.86 3.4318 1.3882-3.6746 0.73491-12.085-1.9598-25.232-0.65551 0.81431-1.3065 1.6331-1.9598 2.4497z"/>
   <path d="m438.85 687.58c-0.32664 9.2272 0.97988 15.354 3.9195 18.375 2.9396 2.858 11.922 4.9788 13.392-0.57159 1.1432-5.7182-0.73492-16.66-5.961-33.153-3.7585 5.0604-7.5124 10.207-11.35 15.349z"/>
   <path d="m461.63 661.29c-0.5716 13.392 0.40829 21.312 2.9396 23.762 2.2047 2.207 10.125-3.3479 11.432-9.3905 1.2248-6.1243 0.16331-14.943-3.5112-26.783-3.5929 4.0828-7.1858 8.2473-10.86 12.412z"/>
  </g>
  <g fill="#a16121">
   <path d="m533.98 740.09-37.154 9.4722c-1.5515-7.1041-1.7148-13.882-0.48993-20.332 1.2248-6.6142 3.7562-12.902 7.9207-18.863 12.248-0.97988 20.741 0.89822 25.804 5.961 4.8994 4.8971 6.2059 12.82 3.9195 23.762z"/>
   <path d="m512.17 694.03c-1.3882-3.3502-0.89824-7.9207 1.4698-14.374 2.3681-6.5326 6.2876-14.372 12.412-23.844 13.963 10.207 22.946 19.026 27.273 26.786 4.0828 7.7574 4.8994 17.148-1.9598 19.35-7.1019 1.8781-19.84-0.65325-39.195-7.9184z"/>
   <path d="m537.97 640.47c0.89822-2.6947 4.0828-5.8793 9.8805-9.8805 5.716-3.9195 13.718-8.6533 24.334-13.882 5.716 17.475 8.7373 30.621 8.4106 40.096-0.16331 9.3905-2.9396 18.373-9.8805 15.923-7.2652-2.8602-17.962-13.315-32.744-32.257z"/>
   <path d="m593.01 657.29c-3.9218-6.6142-6.8592-23.109-3.4296-32.175 3.509-8.9822 16.007-20.496 24.25-21.312 7.9207-0.81657 23.436 5.1444 23.272 15.352-0.40829 9.8805-18.536 36.421-25.722 43.115-7.5079 6.2898-14.778 1.0638-18.37-4.9788z"/>
   <path d="m622.25 667.74c-0.65552-5.716 6.2853-14.372 13.879-18.373 7.4285-4.4911 26.214-9.8805 30.785-6.4509 4.4911 3.5929-0.24269 20.822-4.4911 27.761-4.8155 6.6959-16.086 12.738-22.78 12.414-6.9408-0.73264-16.821-9.6332-17.393-15.352z"/>
   <path d="m644.54 695.99c-0.89822 12.575-3.1052 21.884-6.9431 28.253-4.0012 6.2059-9.2272 9.4722-16.329 9.4722-10.863-8.8189-16.579-16.168-18.377-22.372-1.6309-6.4532 1.3065-12.248 8.4923-14.864 6.9454-2.6924 17.887-2.858 33.157-0.48993z"/>
   <path d="m612.86 748.58c-2.207 6.5326-5.8793 11.675-11.922 16.331-6.0426 4.5728-13.963 7.7574-23.762 10.45-6.4509-10.37-8.9822-18.863-7.9207-25.804 0.97987-7.0225 6.9408-15.76 14.372-15.841 7.2674-0.0794 16.903 4.575 29.233 14.864z"/>
   <path d="m553.33 720.33c-3.5112 2.2047-3.7562 8.8189-2.9396 12.33 0.48994 3.3502 2.9396 9.8805 6.4509 7.9207 3.3479-2.368 14.372-17.964 13.882-21.312-0.8143-3.2663-13.961-1.5515-17.393 1.0615z"/>
   <path d="m575.7 688.56c-2.2047 3.8356-2.9396 13.389 0.9799 13.882 3.7562 0.32662 18.944-7.678 21.31-11.432 1.7987-4.0034-4.5728-11.514-8.4084-11.842-3.9195-0.5716-11.595 5.3894-13.882 9.3928z"/>
   <path d="m448.23 831.38c1.5515-6.9431 4.2462-12.414 8.4106-17.393 4.0828-4.8994 9.5538-8.9822 16.413-11.922 12.983 11.759 20.251 20.904 21.802 27.761 1.1432 6.6958-5.0627 12.004-12.902 12.414-8.0001 0.16105-18.942-3.3502-33.724-10.86z"/>
   <path d="m436.8 849.67-10.86 27.763c16.331 0.89822 28.09-0.0817 36.174-2.9396 7.6757-3.1846 15.678-10.779 11.432-14.862-4.4911-4.0806-16.331-7.5124-36.746-9.9621z"/>
   <path d="m445.3 904.22c3.3479 3.4318 7.7574 5.7999 13.882 7.4308 5.8793 1.6331 13.147 2.2047 21.802 2.0414 2.9396-16.331 2.613-26.538-0.97988-31.274-3.9195-4.6544-14.943-0.24498-20.822 3.5112-5.7976 3.7585-10.534 9.5561-13.882 18.291z"/>
   <path d="m496.82 914.18c5.0627 1.6331 9.7172 1.6331 14.862 0 5.0627-1.9598 9.7172-5.1466 14.862-10.452-3.9195-6.9408-8.4923-11.432-13.392-14.372-5.1444-3.103-14.208-6.4509-16.821-2.4497-2.858 4.1622-2.6947 13.144 0.48993 27.273z"/>
   <path d="m533 890.34c0.97988-0.32889 2.858-1.9598 5.961-4.8994 3.103-3.103 7.0225-7.1858 12.412-12.902-8.4923-3.1846-15.596-5.0604-21.312-4.9788-5.9609-0.24498-13.882 0.73264-13.392 4.4888 0.40829 3.8379 5.961 9.7172 16.331 18.291z"/>
   <path d="m550.88 853.18 0.49-21.8c-10.86-0.24496-18.618 1.0616-23.272 3.9195-4.7361 2.7786-8.9006 9.7988-4.9811 12.902 3.8379 2.9396 12.983 4.4888 27.763 4.9788z"/>
   <path d="m492.9 853.18c-3.3479 2.2886-3.9195 8.7395-3.0213 12.414 0.48994 3.5929 2.9396 9.7965 6.4509 7.9207 3.3479-2.368 14.372-17.964 13.882-21.312-0.5716-3.5112-14.127-1.3904-17.311 0.97762z"/>
  </g>
  <path d="m49.586 888.38c12.494-4.575 30.458-7.9207 54.547-10.942 24.334-3.0213 88.842-10.207 89.251-6.4509-0.5716 3.8356-29.805 13.147-90.231 28.825 39.032-11.35 53.322-17.964 44.095-19.843-9.8805-1.9598-42.952 0.5716-101.09 7.9207l3.4296 0.4899z"/>
  <path d="m313.91 878.49c6.0426-1.6331 18.291-4.0012 28.253-3.0213 9.7172 1.0638 35.357 4.0828 29.723 8.4106-6.2876 4.0851-57.813 14.782-65.489 15.435-7.5941 0.16105 20.088-11.024 20.332-13.392-0.32664-2.368-18.128 0-20.332-1.0615-2.0414-1.5537 1.3065-4.8178 7.5124-6.3715z"/>
  <path d="m421.45 909.2c-1.1432-1.1432-40.257 3.6746-47.116 5.9609-6.8592 1.9598-2.0414 7.3491 5.961 6.4509 7.9184-1.2248 41.806-11.35 41.155-12.412z"/>
  <path d="m444.31 922.02c-1.0615-0.98215-30.866 2.858-36.174 4.5728-5.226 1.4698-1.7964 5.6343 4.5728 4.9811 6.0449-1.0615 32.012-8.6579 31.601-9.5538z"/>
  <path d="m489.88 929.94c-1.1432-0.98215-30.703 2.858-36.092 4.5728-5.3894 1.4698-1.5515 5.6343 4.5728 4.981 6.2059-1.0615 31.846-8.6556 31.52-9.5538z"/>
 </g>
</svg>
